<?xml version="1.0" encoding="iso-8859-1"?>
<!-- Generator: Adobe Illustrator 17.1.0, SVG Export Plug-In . SVG Version: 6.00 Build 0)  -->
<!DOCTYPE svg PUBLIC "-//W3C//DTD SVG 1.1//EN" "http://www.w3.org/Graphics/SVG/1.1/DTD/svg11.dtd">
<svg xmlns="http://www.w3.org/2000/svg" xmlns:xlink="http://www.w3.org/1999/xlink" version="1.1" id="Capa_1" x="0px" y="0px" viewBox="0 0 297 297" style="enable-background:new 0 0 297 297;" xml:space="preserve" width="512px" height="512px">
<g>
	<path d="M240.833,0h-184C44.15,0,33.5,10.317,33.5,23v251c0,12.683,10.65,23,23.333,23H218.48l45.02-45.354V23   C263.5,10.317,253.516,0,240.833,0z M49.5,274V23c0-3.859,3.474-7,7.333-7h184c3.859,0,6.667,3.141,6.667,7v217h-41v41H56.833   C52.974,281,49.5,277.859,49.5,274z" fill="#3578ae"/>
	<rect x="66.5" y="49" width="82" height="16" fill="#3578ae"/>
	<rect x="66.5" y="82" width="165" height="16" fill="#3578ae"/>
	<rect x="66.5" y="115" width="165" height="16" fill="#3578ae"/>
	<rect x="66.5" y="148" width="165" height="16" fill="#3578ae"/>
	<g>
		<path d="M112.588,180.78L67.035,230H82.5v34h21v-25.632c0-4.419,3.582-8,8.001-8c4.418,0,7.999,3.581,7.999,8V264h22v-34h16.131    L112.588,180.78z" fill="#3578ae"/>
	</g>
	<polygon points="185.258,217.929 166.993,198.518 155.341,209.482 186.004,242.071 231.654,187.111 219.346,176.889  " fill="#3578ae"/>
</g>
<g>
</g>
<g>
</g>
<g>
</g>
<g>
</g>
<g>
</g>
<g>
</g>
<g>
</g>
<g>
</g>
<g>
</g>
<g>
</g>
<g>
</g>
<g>
</g>
<g>
</g>
<g>
</g>
<g>
</g>
</svg>
